<?xml version="1.0" encoding="utf-8"?>
<!-- Generator: Adobe Illustrator 16.0.0, SVG Export Plug-In . SVG Version: 6.00 Build 0)  -->
<!DOCTYPE svg PUBLIC "-//W3C//DTD SVG 1.1//EN" "http://www.w3.org/Graphics/SVG/1.1/DTD/svg11.dtd">
<svg version="1.1" id="Layer_1" xmlns="http://www.w3.org/2000/svg" xmlns:xlink="http://www.w3.org/1999/xlink" x="0px" y="0px"
	 width="957px" height="111.243px" viewBox="0 0 957 111.243" enable-background="new 0 0 957 111.243" xml:space="preserve">
<g>
	<path fill="#20080F" d="M144.476,9.454h20.036V44.42h36.884V9.454h20.037v91.115h-20.037V61.265h-36.884v39.305h-20.036V9.454z"/>
	<path fill="#20080F" d="M316.39,66.114c0,24.629-14.55,36.624-38.926,36.624c-24.504,0-38.798-11.867-38.798-36.624V9.454h20.037
		v56.66c0,9.954,2.553,19.779,18.761,19.779c14.294,0,18.889-6.252,18.889-19.779V9.454h20.037V66.114z"/>
	<path fill="#20080F" d="M333.623,9.454h19.909l38.033,61.126h0.254V9.454h18.762v91.115h-20.037L352.64,39.57h-0.256v60.999
		h-18.761V9.454z"/>
	<path fill="#20080F" d="M494.052,90.233c-7.02,9.06-16.209,12.505-25.015,12.505c-28.206,0-44.797-21.056-44.797-47.344
		c0-27.054,16.591-48.109,44.797-48.109c18.633,0,36.245,11.485,38.415,32.158h-19.145c-2.297-10.081-9.827-15.313-19.271-15.313
		c-17.995,0-24.76,15.313-24.76,31.265c0,15.186,6.765,30.499,24.76,30.499c13.017,0,20.547-7.018,21.695-19.651h-20.164V51.311
		h38.288v49.259h-12.763L494.052,90.233z"/>
	<path fill="#20080F" d="M525.066,9.454h68.152v16.845h-48.115v19.524h44.158v15.569h-44.158v22.332h49.137v16.845h-69.174V9.454z"
		/>
	<path fill="#20080F" d="M607.771,9.454h49.136c16.336,0,26.674,11.357,26.674,25.14c0,10.719-4.34,18.76-14.422,22.843v0.255
		c9.828,2.553,12.635,12.123,13.273,21.312c0.382,5.742,0.255,16.462,3.828,21.566h-20.036c-2.426-5.743-2.17-14.548-3.191-21.821
		c-1.403-9.571-5.104-13.782-15.187-13.782h-20.038v35.604h-20.037V9.454z M627.808,50.673h21.952
		c8.934,0,13.783-3.828,13.783-13.017c0-8.805-4.85-12.634-13.783-12.634h-21.952V50.673z"/>
	<path fill="#20080F" d="M705.667,9.454h8.04l35.606,84.862h0.257l35.224-84.862h8.041v91.115h-5.616V16.345h-0.255l-34.714,84.225
		h-5.616l-35.097-84.225h-0.255v84.225h-5.615V9.454z"/>
	<path fill="#20080F" d="M842.101,9.454l35.991,91.115h-5.999l-11.486-29.224h-43.647l-11.614,29.224h-5.998l36.628-91.115H842.101z
		 M858.82,66.497l-19.526-51.556h-0.256l-20.292,51.556H858.82z"/>
	<path fill="#20080F" d="M884.603,9.454H923.4c10.337,0,26.546,3.7,26.546,25.522c0,15.952-10.466,25.012-28.588,25.012h-31.141
		v40.581h-5.615V9.454z M890.218,55.14h32.034c16.464,0,22.079-10.848,22.079-20.29c0-6.764-3.062-20.546-21.313-20.546h-32.8V55.14
		z"/>
</g>
<path fill="#20080F" d="M61.188,111.243c-30.668,0-55.623-24.949-55.623-55.618C5.564,24.957,30.519,0,61.188,0
	c30.667,0,55.62,24.957,55.62,55.625C116.807,86.294,91.854,111.243,61.188,111.243z M60.977,33.69c0.069,0,4.519,4.762,4.519,8.577
	c0,4.128-3.219,5.112-4.308,5.112c-0.054,0-0.119-0.006-0.188-0.012h-0.046c-0.069,0.006-0.142,0.012-0.188,0.012
	c-1.085,0-4.308-0.984-4.308-5.112C56.458,38.452,60.896,33.69,60.977,33.69z M19.091,58.72h5.076v-9.374h8.523V45.42h-8.523v-5.21
	h8.805v-3.913H19.091V58.72z M65.576,34.367h5.35l-6.22-22.423h-6.837l-6.446,22.423h4.956l1.425-5.011h6.488L65.576,34.367z
	 M63.349,25.559h-4.664l2.173-9.754h0.356L63.349,25.559z M86.845,47.509c0,6.588,3.055,11.595,9.504,11.595
	c6.47,0,9.555-5.007,9.555-11.595c0-6.59-3.085-11.595-9.555-11.595C89.9,35.914,86.845,40.919,86.845,47.509z M92.252,47.509
	c0-4.304,1.054-7.805,4.097-7.805c3.055,0,4.154,3.501,4.154,7.805s-1.1,7.808-4.154,7.808
	C93.306,55.316,92.252,51.812,92.252,47.509z M58.815,105.038c0.299-2.167,0.59-5.65,0.59-9.73c0-1.119,0-0.379,0-0.688
	c0-5.743-0.21-7.683-4.043-8.955c-5.921-1.958-8.343-8.565-7.044-16.793L28.515,18.507c-10.299,9.081-16.799,22.349-16.799,37.118
	C11.715,82.113,32.648,103.802,58.815,105.038z M61.165,72.927c-7.879-1.84-10.804-9.018-10.804-15.395L33.02,14.974
	c-1.13,0.783-2.23,1.621-3.292,2.487c3.813,9.04,20.932,49.66,20.956,49.717c3.027,7.297,8.538,4.879,9.872,10.903
	c0.318,1.46,0.341,2.099,0.341,2.099h0.59c0,0,0.012-0.639,0.341-2.099c1.33-6.024,6.829-3.606,9.86-10.903
	c0.023-0.057,17.139-40.677,20.948-49.717c-1.062-0.866-2.154-1.704-3.292-2.487L72.01,57.532c0,6.377-2.932,13.555-10.812,15.395
	H61.165z M61.157,60.078c-3.342-0.745-7.508-4.063-8.048-8.337c-0.195-1.623-0.353-2.077-0.115-5.304L37.798,12.04
	c-1.222,0.661-2.418,1.374-3.587,2.137c4.545,10.209,18.438,41.4,18.445,41.439c2.2,4.627,6.055,4.718,7.389,7.477
	c0.801,1.637,0.874,3.101,0.881,3.218h0.51c0.012-0.117,0.092-1.581,0.881-3.218c1.338-2.759,5.197-2.85,7.389-7.477
	c0.012-0.039,13.908-31.23,18.445-41.439c-1.153-0.763-2.356-1.476-3.587-2.137L69.389,46.438c0.238,3.227,0.081,3.681-0.13,5.304
	c-0.544,4.273-4.71,7.592-8.033,8.337H61.157z M61.368,54.236l0.23-1.876c0.962-4.357,4.124-3.813,6.315-8.09
	c0.012-0.018,0.039-0.065,0.039-0.065c0.065-0.159,10.814-23.223,15.299-32.854c-6.646-3.322-14.134-5.204-22.063-5.204
	c-7.921,0-15.417,1.882-22.071,5.204c4.488,9.631,15.23,32.694,15.318,32.854c0,0,0.019,0.048,0.03,0.065
	c2.185,4.276,5.342,3.732,6.301,8.09L61,54.236H61.368z M110.66,55.625c0-14.77-6.512-28.037-16.794-37.118l-19.82,50.365
	c1.314,8.228-1.123,14.835-7.041,16.793c-3.836,1.272-4.047,3.212-4.047,8.955c0,0.309,0-0.432,0,0.688
	c0,4.08,0.311,7.563,0.59,9.73C89.735,103.802,110.66,82.113,110.66,55.625z M27.346,70.236c0,0,0.73,1.554,1.326,2.656
	c0.59,1.104,1.397,2.436,1.397,2.436l-1.305,0.76c0,0-0.991-1.649-1.901-3.556c-0.249,0.126-1.814,0.942-2.073,1.069
	c0.151,0.277,1.753,3.366,1.753,3.366l-1.322,0.761c0,0-1.625-3.158-1.763-3.424c-0.283,0.14-3.656,1.88-3.656,1.88l-0.809-1.603
	l8.261-4.3L27.346,70.236z M32.565,78.704l1.148,1.386l-7.224,6.039l-1.169-1.383l7.159-5.982L32.565,78.704z M39.259,85.037
	l1.429,1.023l-1.851,9.96l-1.64-0.942c0,0,0.41-2.029,0.46-2.227c-0.081-0.063-1.035-0.635-1.962-1.288
	c-0.939-0.673-1.854-1.43-1.943-1.487c-0.176,0.107-1.993,1.177-1.993,1.177l-1.403-1.197l8.811-4.965L39.259,85.037z
	 M35.085,89.268c0.168,0.143,0.778,0.639,1.414,1.091c0.644,0.448,1.288,0.874,1.475,0.96c0.092-0.416,0.755-3.692,0.889-4.3
	C38.328,87.338,35.464,89.042,35.085,89.268z M45.218,88.702c0,0,1.525,0.761,3.695,1.501c1.475,0.514,2.732,0.912,3.962,1.184
	l-0.429,1.434c0,0-1.173-0.209-3.085-0.795c-0.111,0.314-2.595,7.414-2.595,7.414l-1.701-0.591c0,0,2.476-7.11,2.583-7.419
	c-1.782-0.667-3.02-1.326-3.02-1.326L45.218,88.702z M74.965,90.598c0.616,0.326,1.064,0.9,1.311,1.717
	c0.107,0.345,0.168,0.675,0.168,0.994c0,1.317-0.92,2.35-2.583,2.873c0,0-0.839,0.261-1.088,0.333
	c0.096,0.299,1.088,3.489,1.088,3.489l-1.651,0.428l-2.802-9.071l2.503-0.778C73.16,90.193,74.203,90.199,74.965,90.598z
	 M71.466,92.307c0.081,0.278,0.774,2.495,0.859,2.766c0.345-0.102,1.096-0.342,1.096-0.342c0.249-0.074,0.839-0.308,1.123-0.845
	c0.092-0.176,0.138-0.374,0.138-0.577c0-0.154-0.03-0.313-0.08-0.484c-0.107-0.326-0.303-0.575-0.602-0.729
	c-0.506-0.271-1.188-0.203-1.618-0.076C72.381,92.02,71.7,92.234,71.466,92.307z M80.58,86.646l8.166,5.982l-1.448,1.021
	c0,0-1.641-1.248-1.805-1.368c-0.096,0.052-0.939,0.649-1.848,1.186c-0.854,0.518-1.782,0.976-1.874,1.029
	c0.038,0.213,0.36,2.217,0.36,2.217l-1.56,0.744L79.2,87.445L80.58,86.646z M81.518,92.985c0.241-0.119,0.878-0.464,1.506-0.843
	c0.563-0.342,1.012-0.623,1.238-0.804c-0.33-0.251-2.882-2.189-3.411-2.6C80.958,89.406,81.453,92.569,81.518,92.985z
	 M89.911,78.401l7.121,6.354l-1.28,1.503c0,0-6.68-1.949-7.691-2.221c0.751,0.718,4.894,5.085,4.894,5.085l-1.249,1.131l-6.71-6.818
	l1.574-1.412c0,0,6.446,1.922,7.458,2.19c-0.751-0.715-5.2-4.539-5.2-4.539L89.911,78.401z M93.165,73.66l8.251,4.783l-0.839,1.448
	l-8.293-4.798L93.165,73.66z M96.741,65.745l1.414,0.735l-0.143,0.165c-0.459,0.56-0.666,0.847-0.881,1.476
	c-0.107,0.287-0.237,0.835-0.023,1.251c0.104,0.219,0.295,0.378,0.563,0.464c0.629,0.213,1.173-0.336,1.794-0.97
	c0.87-0.884,1.95-1.976,3.694-1.39c1.771,0.603,2.372,2.178,1.64,4.325c-0.222,0.655-0.628,1.213-1.004,1.73l-0.084,0.111
	l-1.464-0.681l0.146-0.17c0.177-0.207,0.785-0.922,1.016-1.631c0.223-0.623,0.199-1.677-0.747-1.997
	c-0.786-0.272-1.376,0.335-2.065,1.045c-0.836,0.877-1.794,1.87-3.373,1.329c-0.693-0.233-1.215-0.674-1.506-1.261
	c-0.356-0.721-0.368-1.636-0.038-2.595c0.21-0.644,0.566-1.311,0.98-1.826L96.741,65.745z"/>
</svg>
